<svg width="40" height="24" viewBox="0 0 40 24" fill="none" xmlns="http://www.w3.org/2000/svg">
<path d="M38.4 0H1.6C0.716344 0 0 0.716344 0 1.6V22.4C0 23.2837 0.716344 24 1.6 24H38.4C39.2837 24 40 23.2837 40 22.4V1.6C40 0.716344 39.2837 0 38.4 0Z" fill="#000066"/>
<path fill-rule="evenodd" clip-rule="evenodd" d="M22.4514 12.1938C22.4514 16.5051 18.9567 19.9996 14.6456 19.9996C10.3343 19.9996 6.83936 16.5051 6.83936 12.1938C6.83936 7.8826 10.3343 4.3877 14.6456 4.3877C18.9567 4.3877 22.4514 7.8826 22.4514 12.1938Z" fill="#CC0000"/>
<path fill-rule="evenodd" clip-rule="evenodd" d="M25.1254 4.3877C23.108 4.3877 21.2704 5.1529 19.8848 6.40821C19.603 6.66405 19.3398 6.94038 19.0969 7.23459H20.6741C20.8895 7.49686 21.088 7.77256 21.2692 8.06135H18.5017C18.3362 8.3267 18.1857 8.60241 18.052 8.88811H21.7187C21.844 9.15568 21.9543 9.43126 22.0493 9.71449H17.7214C17.6313 9.98367 17.5553 10.2595 17.4946 10.5408H22.2758C22.3903 11.0737 22.4512 11.6266 22.4512 12.1938C22.4512 13.0604 22.31 13.8945 22.0493 14.6736H17.7214C17.8164 14.9565 17.9266 15.2325 18.0517 15.5004H21.7187C21.5847 15.7854 21.435 16.0614 21.2685 16.3271H18.5017C18.6822 16.615 18.8811 16.8911 19.0969 17.153H20.6736C20.4312 17.4474 20.1678 17.7238 19.8851 17.9796C21.2705 19.2349 23.108 19.9996 25.1254 19.9996C29.4365 19.9996 32.9313 16.5051 32.9313 12.1938C32.9313 7.88297 29.4365 4.3877 25.1254 4.3877Z" fill="#FF9900"/>
<path fill-rule="evenodd" clip-rule="evenodd" d="M12.8229 13.0486C12.734 13.0385 12.6947 13.0353 12.6337 13.0353C12.1533 13.0353 11.9104 13.2001 11.9104 13.5256C11.9104 13.7261 12.029 13.8535 12.214 13.8535C12.5593 13.8535 12.8081 13.5249 12.8229 13.0486ZM13.4393 14.4834H12.7369L12.7531 14.1497C12.5389 14.4132 12.2531 14.539 11.8649 14.539C11.4058 14.539 11.0908 14.1805 11.0908 13.6596C11.0908 12.8754 11.6384 12.4181 12.5785 12.4181C12.6749 12.4181 12.798 12.427 12.9241 12.4429C12.9502 12.3366 12.9571 12.2914 12.9571 12.234C12.9571 12.0209 12.8096 11.9409 12.4137 11.9409C11.9991 11.9367 11.6572 12.04 11.5167 12.0861C11.5255 12.0326 11.6342 11.3619 11.6342 11.3619C12.0564 11.2378 12.3349 11.1914 12.6484 11.1914C13.3762 11.1914 13.7617 11.5181 13.7608 12.1356C13.7623 12.3013 13.7348 12.5049 13.6922 12.7736C13.6187 13.2399 13.4608 14.24 13.4393 14.4834Z" fill="#000066"/>
<path fill-rule="evenodd" clip-rule="evenodd" d="M10.7357 14.4839H9.88811L10.3739 11.4404L9.28969 14.4839H8.71225L8.64082 11.4574L8.13061 14.4839H7.3374L7.99997 10.5244H9.21864L9.29228 12.7407L10.0358 10.5244H11.3911L10.7357 14.4839Z" fill="#000066"/>
<path fill-rule="evenodd" clip-rule="evenodd" d="M26.1725 13.0486C26.0836 13.0385 26.0448 13.0353 25.9839 13.0353C25.5032 13.0353 25.2605 13.2001 25.2605 13.5256C25.2605 13.7261 25.3786 13.8535 25.5641 13.8535C25.9091 13.8535 26.1581 13.5249 26.1725 13.0486ZM26.7893 14.4834H26.0872L26.1031 14.1497C25.8889 14.4132 25.6032 14.539 25.2152 14.539C24.7555 14.539 24.4409 14.1805 24.4409 13.6596C24.4409 12.8754 24.9888 12.4181 25.9286 12.4181C26.0249 12.4181 26.1477 12.427 26.2739 12.4429C26.3002 12.3366 26.307 12.2914 26.307 12.234C26.307 12.0209 26.1594 11.9409 25.7636 11.9409C25.349 11.9367 25.0071 12.04 24.8661 12.0861C24.8755 12.0326 24.9844 11.3619 24.9844 11.3619C25.4063 11.2378 25.6851 11.1914 25.9981 11.1914C26.7264 11.1914 27.1114 11.5181 27.1107 12.1356C27.1122 12.3013 27.0849 12.5049 27.0421 12.7736C26.9688 13.2399 26.8105 14.24 26.7893 14.4834Z" fill="#000066"/>
<path fill-rule="evenodd" clip-rule="evenodd" d="M17.2056 14.4348C16.9736 14.5079 16.7929 14.5395 16.5967 14.5395C16.1636 14.5395 15.9271 14.2905 15.9271 13.832C15.9211 13.6896 15.9894 13.3152 16.0432 12.9738C16.0923 12.6729 16.4108 10.7764 16.4108 10.7764H17.253L17.1547 11.2638H17.6635L17.5487 12.0377H17.0381C16.9403 12.65 16.8008 13.4128 16.7992 13.514C16.7992 13.68 16.8877 13.7525 17.0894 13.7525C17.186 13.7525 17.2608 13.7427 17.3179 13.7222L17.2056 14.4348Z" fill="#000066"/>
<path fill-rule="evenodd" clip-rule="evenodd" d="M19.7882 14.4084C19.4988 14.4968 19.2199 14.54 18.9239 14.539C17.9808 14.5378 17.4893 14.0456 17.4893 13.1025C17.4893 12.0019 18.1146 11.1914 18.9637 11.1914C19.658 11.1914 20.1018 11.6451 20.1018 12.3564C20.1018 12.5929 20.0714 12.8233 19.9978 13.1485H18.3203C18.2637 13.6157 18.5625 13.8102 19.0528 13.8102C19.354 13.8102 19.6261 13.748 19.9285 13.6078L19.7882 14.4084ZM19.3147 12.4995C19.3195 12.4323 19.4039 11.9247 18.9225 11.9247C18.6545 11.9247 18.4624 12.1292 18.3846 12.4995H19.3147Z" fill="#000066"/>
<path fill-rule="evenodd" clip-rule="evenodd" d="M13.9473 12.2814C13.9473 12.6884 14.1447 12.9693 14.5925 13.1803C14.9356 13.3418 14.989 13.3896 14.989 13.5357C14.989 13.7362 14.8375 13.8272 14.5023 13.8272C14.2493 13.8272 14.0142 13.7875 13.7429 13.6998C13.7429 13.6998 13.6318 14.4099 13.6265 14.4438C13.819 14.4855 13.9907 14.5243 14.5084 14.539C15.4025 14.539 15.8155 14.1985 15.8155 13.4627C15.8155 13.0203 15.6428 12.7607 15.2182 12.5653C14.863 12.4023 14.8219 12.3658 14.8219 12.2155C14.8219 12.0415 14.9629 11.9525 15.2367 11.9525C15.4031 11.9525 15.6302 11.9703 15.8457 12.0008L15.9662 11.2539C15.7469 11.219 15.4141 11.1914 15.2204 11.1914C14.2725 11.1914 13.9442 11.6864 13.9473 12.2814Z" fill="#000066"/>
<path fill-rule="evenodd" clip-rule="evenodd" d="M23.9093 11.2766C24.1446 11.2766 24.3644 11.3378 24.6666 11.4904L24.8053 10.6311C24.6807 10.5822 24.2439 10.2959 23.8738 10.2959C23.3069 10.2959 22.827 10.5777 22.4901 11.0416C21.9982 10.8788 21.7957 11.2079 21.548 11.536L21.3278 11.5874C21.3445 11.4794 21.3596 11.3722 21.3548 11.2635H20.5762C20.4701 12.2604 20.2817 13.2697 20.1343 14.267L20.0957 14.4836H20.9436C21.085 13.5641 21.1624 12.9755 21.2095 12.5768L21.5288 12.3999C21.5768 12.2222 21.7257 12.1625 22.0252 12.1697C21.9861 12.3797 21.9649 12.6009 21.9649 12.8297C21.9649 13.8833 22.534 14.5392 23.4459 14.5392C23.6809 14.5392 23.8827 14.5084 24.1952 14.4233L24.3437 13.521C24.0627 13.6591 23.8326 13.7241 23.624 13.7241C23.1313 13.7241 22.8332 13.3603 22.8332 12.7594C22.8332 11.8874 23.2763 11.2766 23.9093 11.2766Z" fill="#000066"/>
<path fill-rule="evenodd" clip-rule="evenodd" d="M31.0843 10.5244L30.8959 11.6683C30.6646 11.3635 30.4157 11.1427 30.0871 11.1427C29.6595 11.1427 29.2703 11.4669 29.0154 11.9443C28.6605 11.8706 28.2938 11.7454 28.2938 11.7454L28.2935 11.7485C28.3218 11.4817 28.3337 11.3193 28.3309 11.2638H27.5524C27.4467 12.2607 27.2581 13.27 27.1108 14.2673L27.0718 14.4839H27.9199C28.0344 13.7408 28.1218 13.123 28.1863 12.6337C28.4762 12.3717 28.6213 12.1439 28.9135 12.1587C28.7839 12.4723 28.7083 12.8332 28.7083 13.2035C28.7083 14.0082 29.1151 14.5395 29.7314 14.5395C30.042 14.5395 30.2804 14.4323 30.5128 14.1841L30.4728 14.4836H31.2746L31.9202 10.5244H31.0843ZM30.0245 13.74C29.7361 13.74 29.59 13.5261 29.59 13.1052C29.59 12.4723 29.863 12.0236 30.2473 12.0236C30.5386 12.0236 30.6965 12.2452 30.6965 12.6542C30.6965 13.2926 30.4189 13.74 30.0245 13.74Z" fill="#000066"/>
<path fill-rule="evenodd" clip-rule="evenodd" d="M10.9797 14.2482H10.1324L10.618 11.2046L9.53408 14.2482H8.95639L8.88509 11.2223L8.37475 14.2482H7.58154L8.24411 10.2891H9.46278L9.49683 12.74L10.3191 10.2891H11.6353L10.9797 14.2482Z" fill="white"/>
<path fill-rule="evenodd" clip-rule="evenodd" d="M13.0669 12.8147C12.9781 12.8043 12.9389 12.8015 12.8778 12.8015C12.3975 12.8015 12.1544 12.9661 12.1544 13.2914C12.1544 13.4916 12.2731 13.6198 12.4583 13.6198C12.8034 13.6198 13.0523 13.2911 13.0669 12.8147ZM13.6832 14.249H12.9812L12.9972 13.9156C12.7831 14.1789 12.4973 14.3049 12.109 14.3049C11.6498 14.3049 11.335 13.9459 11.335 13.4251C11.335 12.6408 11.8827 12.1841 12.8228 12.1841C12.9189 12.1841 13.042 12.1928 13.1682 12.2091C13.1944 12.1025 13.2013 12.0573 13.2013 11.9997C13.2013 11.7866 13.0537 11.7073 12.6579 11.7073C12.2431 11.7024 11.9013 11.8056 11.7607 11.8516C11.7697 11.7983 11.8782 11.1276 11.8782 11.1276C12.3005 11.0038 12.579 10.957 12.8925 10.957C13.6202 10.957 14.0056 11.2841 14.005 11.9013C14.0063 12.0668 13.9791 12.2714 13.9364 12.5394C13.8627 13.0053 13.7048 14.006 13.6832 14.249Z" fill="white"/>
<path fill-rule="evenodd" clip-rule="evenodd" d="M25.0491 10.3961L24.9103 11.2553C24.6077 11.1032 24.3885 11.0416 24.1534 11.0416C23.5207 11.0416 23.0768 11.6531 23.0768 12.5253C23.0768 13.1261 23.3751 13.4892 23.8678 13.4892C24.0765 13.4892 24.3071 13.4247 24.5875 13.2861L24.4386 14.1884C24.1266 14.2734 23.9247 14.3045 23.6898 14.3045C22.7773 14.3045 22.209 13.6485 22.209 12.5951C22.209 11.1797 22.9947 10.1904 24.1177 10.1904C24.4878 10.1904 24.9249 10.3472 25.0491 10.3961Z" fill="white"/>
<path fill-rule="evenodd" clip-rule="evenodd" d="M26.4164 12.8147C26.3281 12.8043 26.2887 12.8015 26.2278 12.8015C25.7477 12.8015 25.5045 12.9661 25.5045 13.2914C25.5045 13.4916 25.6231 13.6198 25.8081 13.6198C26.1532 13.6198 26.4022 13.2911 26.4164 12.8147ZM27.0332 14.249H26.3312L26.3471 13.9156C26.1329 14.1789 25.8471 14.3049 25.4593 14.3049C24.9995 14.3049 24.6851 13.9459 24.6851 13.4251C24.6851 12.6408 25.2323 12.1841 26.1727 12.1841C26.2688 12.1841 26.3916 12.1928 26.5177 12.2091C26.544 12.1025 26.5509 12.0573 26.5509 11.9997C26.5509 11.7866 26.4037 11.7073 26.0076 11.7073C25.5932 11.7024 25.2515 11.8056 25.1107 11.8516C25.1195 11.7983 25.2282 11.1276 25.2282 11.1276C25.6505 11.0038 25.9288 10.957 26.2422 10.957C26.9699 10.957 27.3557 11.2841 27.3547 11.9013C27.3564 12.0668 27.3289 12.2714 27.2862 12.5394C27.2128 13.0053 27.0549 14.006 27.0332 14.249Z" fill="white"/>
<path fill-rule="evenodd" clip-rule="evenodd" d="M17.4488 14.2002C17.217 14.2733 17.036 14.305 16.8401 14.305C16.4069 14.305 16.1703 14.0559 16.1703 13.5979C16.1644 13.455 16.2328 13.0812 16.2867 12.7394C16.3355 12.4383 16.6541 10.542 16.6541 10.542H17.4965L17.398 11.0293H17.8305L17.7152 11.803H17.2814C17.1836 12.4158 17.044 13.1782 17.0423 13.2793C17.0423 13.4459 17.1313 13.5179 17.3327 13.5179C17.4293 13.5179 17.5039 13.5084 17.5613 13.4875L17.4488 14.2002Z" fill="white"/>
<path fill-rule="evenodd" clip-rule="evenodd" d="M20.032 14.1746C19.7424 14.2633 19.4629 14.3051 19.1673 14.3049C18.2241 14.3043 17.7329 13.8115 17.7329 12.8685C17.7329 11.7675 18.3581 10.957 19.2066 10.957C19.9017 10.957 20.3452 11.4107 20.3452 12.1229C20.3452 12.3589 20.3143 12.5892 20.2416 12.9145H18.5639C18.507 13.3817 18.8061 13.5766 19.296 13.5766C19.5974 13.5766 19.8694 13.5142 20.1721 13.3735L20.032 14.1746ZM19.5584 12.2651C19.563 12.1978 19.6477 11.6904 19.1664 11.6904C18.8982 11.6904 18.7061 11.8953 18.628 12.2651H19.5584Z" fill="white"/>
<path fill-rule="evenodd" clip-rule="evenodd" d="M14.1912 12.047C14.1912 12.4547 14.3888 12.735 14.8368 12.9463C15.1798 13.1077 15.233 13.1554 15.233 13.3017C15.233 13.5024 15.0816 13.593 14.7462 13.593C14.4934 13.593 14.2582 13.5538 13.9868 13.4663C13.9868 13.4663 13.8758 14.1759 13.8706 14.2093C14.063 14.2515 14.2349 14.29 14.7523 14.3049C15.6466 14.3049 16.0596 13.9645 16.0596 13.2287C16.0596 12.7861 15.8867 12.5265 15.4622 12.3316C15.1069 12.1682 15.0661 12.132 15.0661 11.9815C15.0661 11.8075 15.207 11.7179 15.4809 11.7179C15.647 11.7179 15.8743 11.7364 16.0897 11.7668L16.2104 11.0201C15.9909 10.9854 15.6583 10.957 15.4645 10.957C14.5164 10.957 14.1884 11.4522 14.1912 12.047Z" fill="white"/>
<path fill-rule="evenodd" clip-rule="evenodd" d="M31.5187 14.2482H30.7171L30.7568 13.9485C30.5242 14.1969 30.286 14.3041 29.9754 14.3041C29.3596 14.3041 28.9521 13.7734 28.9521 12.9678C28.9521 11.8968 29.5839 10.9941 30.3311 10.9941C30.6597 10.9941 30.9085 11.1283 31.1403 11.4332L31.3283 10.2891H32.1641L31.5187 14.2482ZM30.2684 13.5042C30.6633 13.5042 30.9403 13.057 30.9403 12.4192C30.9403 12.0101 30.7826 11.7878 30.4913 11.7878C30.1069 11.7878 29.834 12.2365 29.834 12.8697C29.834 13.2911 29.9802 13.5042 30.2684 13.5042Z" fill="white"/>
<path fill-rule="evenodd" clip-rule="evenodd" d="M27.7964 11.0287C27.6904 12.0253 27.5019 13.0347 27.3545 14.032L27.3159 14.2485H28.1635C28.4667 12.2795 28.5396 11.8952 29.0153 11.9432C29.0909 11.5402 29.2319 11.1872 29.3369 11.0093C28.982 10.9353 28.7838 11.1359 28.524 11.5171C28.5447 11.3522 28.5821 11.1922 28.5751 11.0287H27.7964Z" fill="white"/>
<path fill-rule="evenodd" clip-rule="evenodd" d="M20.8207 11.0287C20.7142 12.0253 20.5255 13.0347 20.3783 14.032L20.3398 14.2485H21.1877C21.491 12.2795 21.5637 11.8952 22.0386 11.9432C22.1147 11.5402 22.256 11.1872 22.3607 11.0093C22.0062 10.9353 21.8076 11.1359 21.5483 11.5171C21.5688 11.3522 21.6064 11.1922 21.599 11.0287H20.8207Z" fill="white"/>
</svg>
