<svg width="40" height="24" viewBox="0 0 40 24" fill="none" xmlns="http://www.w3.org/2000/svg">
<path d="M38.4 0H1.6C0.716344 0 0 0.716344 0 1.6V22.4C0 23.2837 0.716344 24 1.6 24H38.4C39.2837 24 40 23.2837 40 22.4V1.6C40 0.716344 39.2837 0 38.4 0Z" fill="#0072CE"/>
<path fill-rule="evenodd" clip-rule="evenodd" d="M33.7628 13.8662H32.3496C32.2085 13.8662 32.1148 13.8714 32.0358 13.9246C31.954 13.977 31.9225 14.0547 31.9225 14.1574C31.9225 14.2794 31.9916 14.3624 32.0921 14.3983C32.1739 14.4267 32.2617 14.435 32.3909 14.435L32.8111 14.4462C33.2352 14.4567 33.5183 14.5293 33.6909 14.7066C33.7223 14.7313 33.7412 14.759 33.7628 14.7867V13.8662ZM33.7628 15.999C33.5745 16.2736 33.2074 16.4128 32.7106 16.4128H31.2131V15.7191H32.7045C32.8524 15.7191 32.956 15.6997 33.0183 15.639C33.0723 15.589 33.11 15.5163 33.11 15.428C33.11 15.3338 33.0723 15.2589 33.0152 15.2141C32.959 15.1647 32.8771 15.1423 32.7421 15.1423C32.014 15.1176 31.1057 15.1647 31.1057 14.141C31.1057 13.6718 31.4045 13.1778 32.2182 13.1778H33.7627V12.5342H32.3277C31.8946 12.5342 31.58 12.6376 31.3572 12.7984V12.5342H29.2346C28.8952 12.5342 28.4967 12.6181 28.3083 12.7984V12.5342H24.5178V12.7984C24.2162 12.5814 23.7072 12.5342 23.4722 12.5342H20.972V12.7984C20.7334 12.5679 20.2027 12.5342 19.8792 12.5342H17.081L16.4407 13.2251L15.841 12.5342H11.6611V17.0482H15.7623L16.4221 16.3464L17.0436 17.0482L19.5716 17.0504V15.9886H19.8202C20.1556 15.9937 20.5512 15.9803 20.9002 15.8298V17.0481H22.9854V15.8716H23.0859C23.2143 15.8716 23.2269 15.8769 23.2269 16.0047V17.048H29.5612C29.9634 17.048 30.3837 16.9454 30.6165 16.7591V17.048H32.6257C33.0438 17.048 33.4521 16.9895 33.7628 16.8399V15.999ZM30.6697 14.7066C30.8207 14.8624 30.9016 15.0591 30.9016 15.392C30.9016 16.088 30.4655 16.4128 29.6835 16.4128H28.1732V15.7191H29.6775C29.8245 15.7191 29.9288 15.6997 29.9942 15.639C30.0475 15.589 30.0858 15.5163 30.0858 15.428C30.0858 15.3338 30.0444 15.2589 29.9912 15.2141C29.9319 15.1647 29.8501 15.1423 29.715 15.1423C28.9899 15.1176 28.0818 15.1647 28.0818 14.141C28.0818 13.6718 28.3775 13.1778 29.1904 13.1778H30.7449V13.8664H29.3225C29.1815 13.8664 29.0898 13.8716 29.0118 13.9248C28.9269 13.9772 28.8954 14.0549 28.8954 14.1576C28.8954 14.2796 28.9675 14.3626 29.065 14.3985C29.1468 14.4269 29.2347 14.4352 29.3668 14.4352L29.7842 14.4464C30.2052 14.4567 30.4941 14.5292 30.6697 14.7066ZM23.6728 14.5068C23.5691 14.5682 23.4408 14.5734 23.29 14.5734H22.348V13.8469H23.3028C23.4408 13.8469 23.579 13.8498 23.6728 13.9053C23.7733 13.9577 23.8334 14.0579 23.8334 14.1963C23.8334 14.3347 23.7733 14.4462 23.6728 14.5068ZM24.1411 14.9094C24.3137 14.9729 24.4548 15.0868 24.521 15.181C24.6305 15.3389 24.6463 15.4863 24.6495 15.7715V16.4128H23.871V16.0081C23.871 15.8134 23.8898 15.5253 23.7456 15.3748C23.6323 15.2589 23.4596 15.2312 23.1767 15.2312H22.3481V16.4128H21.5689V13.1777H23.3591C23.7517 13.1777 24.0376 13.195 24.2921 13.3304C24.5368 13.4778 24.6907 13.6798 24.6907 14.0488C24.6906 14.5651 24.3452 14.8286 24.1411 14.9094ZM25.1207 13.1777H27.7087V13.8468H25.8929V14.4349H27.6643V15.095H25.8929V15.7386L27.7087 15.7415V16.4128H25.1207V13.1777ZM19.8891 14.6707H18.887V13.8469H19.8981C20.178 13.8469 20.3723 13.9606 20.3723 14.2435C20.3723 14.5233 20.187 14.6707 19.8891 14.6707ZM18.1147 16.1186L16.9242 14.8008L18.1147 13.5249V16.1186ZM15.0402 15.7386H13.1337V15.095H14.8361V14.4349H13.1337V13.8468H15.0778L15.9259 14.7895L15.0402 15.7386ZM21.2048 14.2435C21.2048 15.1422 20.5323 15.3277 19.8545 15.3277H18.887V16.4128H17.3798L16.4251 15.3419L15.4328 16.4128H12.3613V13.1777H15.48L16.4341 14.2381L17.4204 13.1777H19.8981C20.5134 13.1777 21.2048 13.3476 21.2048 14.2435Z" fill="white"/>
<path fill-rule="evenodd" clip-rule="evenodd" d="M8.6621 9.44973L8.13137 8.16037L7.60368 9.44973H8.6621ZM20.3539 8.93631C20.2474 9.00079 20.1214 9.00294 19.9704 9.00294H19.0284V8.28455H19.9832C20.1183 8.28455 20.2593 8.2906 20.3509 8.34289C20.4515 8.39001 20.5137 8.49029 20.5137 8.62882C20.5137 8.77018 20.4545 8.88392 20.3539 8.93631ZM27.0739 9.44973L26.5373 8.16037L26.0037 9.44973H27.0739ZM14.5474 10.8453H13.7525L13.7496 8.31226L12.6252 10.8453H11.9444L10.8171 8.31002V10.8453H9.23998L8.94204 10.1239H7.32755L7.02657 10.8453H6.18439L7.57295 7.61104H8.72501L10.0438 10.6733V7.61104H11.3094L12.3241 9.80512L13.2563 7.61104H14.5473V10.8453H14.5474ZM17.7157 10.8453H15.1253V7.61104H17.7157V8.28455H15.9008V8.86753H17.6721V9.53051H15.9008V10.1764H17.7157V10.8453ZM21.3679 8.4821C21.3679 8.99777 21.0227 9.26419 20.8215 9.34418C20.9912 9.40857 21.1361 9.52231 21.2051 9.61655C21.3146 9.77742 21.3335 9.92111 21.3335 10.21V10.8453H20.5514L20.5485 10.4375C20.5485 10.2428 20.5671 9.96296 20.426 9.80736C20.3127 9.69362 20.14 9.66894 19.8609 9.66894H19.0285V10.8453H18.2531V7.61104H20.0366C20.4329 7.61104 20.7249 7.62148 20.9756 7.76596C21.2209 7.91044 21.3679 8.12135 21.3679 8.4821ZM22.6088 10.8453H21.8176V7.61104H22.6088V10.8453ZM31.7877 10.8453H30.6889L29.2191 8.41781V10.8453H27.64L27.3382 10.1239H25.7274L25.4347 10.8453H24.5273C24.1504 10.8453 23.6732 10.7622 23.403 10.4876C23.1305 10.213 22.9887 9.84102 22.9887 9.25287C22.9887 8.7732 23.0734 8.3347 23.4067 7.98819C23.6574 7.73006 24.0499 7.61104 24.5843 7.61104H25.335V8.30406H24.6C24.3171 8.30406 24.1573 8.34601 24.0034 8.49566C23.8712 8.63184 23.7805 8.88929 23.7805 9.22829C23.7805 9.5748 23.8495 9.82463 23.9937 9.98784C24.1131 10.1158 24.33 10.1547 24.5341 10.1547H24.8823L25.9752 7.61114H27.137L28.4499 10.6703V7.61114H29.6305L30.9935 9.86365V7.61114H31.7877V10.8453ZM6.17539 11.4806H7.50025L7.79898 10.7622H8.46777L8.76572 11.4806H11.3725V10.9314L11.6052 11.4829H12.9584L13.1911 10.9232V11.4806H19.6694L19.6664 10.3014H19.7917C19.8795 10.3044 19.9051 10.3125 19.9051 10.457V11.4806H23.2557V11.2061C23.526 11.3505 23.9463 11.4806 24.4995 11.4806H25.909L26.2107 10.7622H26.8795L27.1745 11.4806H29.8909V10.7982L30.3022 11.4806H32.4789V6.96973H30.3247V7.50247L30.0231 6.96973H27.8126V7.50247L27.5356 6.96973H24.5497C24.0499 6.96973 23.6106 7.03928 23.2557 7.23312V6.96973H21.1952V7.23312C20.9694 7.03333 20.6617 6.96973 20.3195 6.96973H12.7918L12.2867 8.13481L11.768 6.96973H9.39693V7.50247L9.13646 6.96973H7.11434L6.17529 9.11444V11.4806H6.17539Z" fill="white"/>
</svg>
