<svg xmlns="http://www.w3.org/2000/svg" width="18" height="18" viewBox="0 0 18 18">
  <metadata><?xpacket begin="﻿" id="W5M0MpCehiHzreSzNTczkc9d"?>
<x:xmpmeta xmlns:x="adobe:ns:meta/" x:xmptk="Adobe XMP Core 5.6-c142 79.160924, 2017/07/13-01:06:39        ">
   <rdf:RDF xmlns:rdf="http://www.w3.org/1999/02/22-rdf-syntax-ns#">
      <rdf:Description rdf:about=""/>
   </rdf:RDF>
</x:xmpmeta>





















<?xpacket end="w"?></metadata>

  <path d="M3395.95,461.622c-0.29.178-.32,1.518,1.31,2.325a4.136,4.136,0,0,1-3.77-1.555,7.527,7.527,0,0,1-1.12.17c-3.14,0-5.05-1.9-5.05-4.27s1.91-4.295,5.05-4.295,5.63,1.923,5.63,4.295A3.947,3.947,0,0,1,3395.95,461.622Zm-9.7-2.906c0.14,2.626,2.35,4.824,5.73,5.045a5.7,5.7,0,0,0,1.12-.141v0l0.1-.026a4.07,4.07,0,0,0,2.92,1.268c-0.71,2.868-3.44,4.978-7.53,4.978a11.533,11.533,0,0,1-1.7-.259,6.331,6.331,0,0,1-5.76,2.377c2.49-1.235,2.44-3.279,2-3.552a6.009,6.009,0,0,1-3.13-5.084c0-3.087,2.76-5.668,6.55-6.366A4.545,4.545,0,0,0,3386.25,458.716Z" transform="translate(-3380 -454)"/>
</svg>
