<svg xmlns="http://www.w3.org/2000/svg" width="18" height="18" viewBox="0 0 18 18">
  <metadata><?xpacket begin="﻿" id="W5M0MpCehiHzreSzNTczkc9d"?>
<x:xmpmeta xmlns:x="adobe:ns:meta/" x:xmptk="Adobe XMP Core 5.6-c142 79.160924, 2017/07/13-01:06:39        ">
   <rdf:RDF xmlns:rdf="http://www.w3.org/1999/02/22-rdf-syntax-ns#">
      <rdf:Description rdf:about=""/>
   </rdf:RDF>
</x:xmpmeta>





















<?xpacket end="w"?></metadata>

  <path  d="M3394.62,410.534l3.15,3.3v0a0.905,0.905,0,0,1,.23.6,0.865,0.865,0,0,1-.84.885,0.815,0.815,0,0,1-.58-0.239v0l-7.56-7.93h0l-0.02-.021h0l-7.56,7.936h-0.01a0.815,0.815,0,0,1-.59.254,0.865,0.865,0,0,1-.84-0.885,0.9,0.9,0,0,1,.26-0.637l8.13-8.533A0.818,0.818,0,0,1,3389,405h0.05l0.04,0h0a0.845,0.845,0,0,1,.53.277h0l3.32,3.483m3.37,7.154v6.2a0.867,0.867,0,0,1-.84.886h-4.39v-6.135h-3.28V423h-5.27a0.86,0.86,0,0,1-.84-0.886v-6.2l7.31-7.673Z" transform="translate(-3380 -405)"/>
</svg>
