<svg width="20" height="20" fill="none" xmlns="http://www.w3.org/2000/svg"><path fill-rule="evenodd" clip-rule="evenodd" d="M2.5 6.167a.5.5 0 0 1 .5.5V17h14V6.667a.5.5 0 0 1 1 0V17.5a.5.5 0 0 1-.5.5h-15a.5.5 0 0 1-.5-.5V6.667a.5.5 0 0 1 .5-.5Z" fill="#A1A1A1"/><path fill-rule="evenodd" clip-rule="evenodd" d="M.333 2.5a.5.5 0 0 1 .5-.5h18.334a.5.5 0 0 1 .5.5v4.167a.5.5 0 0 1-.5.5H.833a.5.5 0 0 1-.5-.5V2.5Zm1 .5v3.167h17.334V3H1.333ZM7.833 10a.5.5 0 0 1 .5-.5h3.334a.5.5 0 1 1 0 1H8.333a.5.5 0 0 1-.5-.5ZM7.833 13a.5.5 0 0 1 .5-.5h3.334a.5.5 0 0 1 0 1H8.333a.5.5 0 0 1-.5-.5Z" fill="#A1A1A1"/></svg>