<svg width="8" height="8" viewBox="0 0 8 8" xmlns="http://www.w3.org/2000/svg">
<path d="M4.9004 3.99356L7.62501 6.71822C7.87623 6.96939 7.87623 7.37608 7.62501 7.62676C7.37421 7.87768 6.96789 7.87768 6.71708 7.62676L3.99206 4.90161L1.26744 7.62676C1.01705 7.87768 0.610312 7.87768 0.359104 7.62676C0.108712 7.37608 0.108712 6.96939 0.359104 6.71822L3.08412 3.99356L0.359104 1.2689C0.108712 1.0182 0.108712 0.611512 0.359104 0.360592C0.610312 0.110152 1.01705 0.110152 1.26744 0.360592L3.99206 3.08525L6.71708 0.360592C6.96789 0.110152 7.37421 0.110152 7.62501 0.360592C7.87623 0.611512 7.87623 1.0182 7.62501 1.2689L4.9004 3.99356Z"/>
</svg>
