<svg xmlns="http://www.w3.org/2000/svg" width="18" height="18" viewBox="0 0 18 18">
  <metadata><?xpacket begin="﻿" id="W5M0MpCehiHzreSzNTczkc9d"?>
<x:xmpmeta xmlns:x="adobe:ns:meta/" x:xmptk="Adobe XMP Core 5.6-c142 79.160924, 2017/07/13-01:06:39        ">
   <rdf:RDF xmlns:rdf="http://www.w3.org/1999/02/22-rdf-syntax-ns#">
      <rdf:Description rdf:about=""/>
   </rdf:RDF>
</x:xmpmeta>
                                                                                                    
                                                                                                    
                                                                                                    
                                                                                                    
                                                                                                    
                                                                                                    
                                                                                                    
                                                                                                    
                                                                                                    
                                                                                                    
                                                                                                    
                                                                                                    
                                                                                                    
                                                                                                    
                                                                                                    
                                                                                                    
                                                                                                    
                                                                                                    
                                                                                                    
                                                                                                    
                           
<?xpacket end="w"?></metadata>
<defs>
    <style>
      .cls-1 {
        fill: #aaa;
        fill-rule: evenodd;
      }
    </style>
  </defs>
  <path id="icon" class="cls-1" d="M315.713,1987.74l-1.865,1.86-2.487-2.49,1.865-1.86a0.886,0.886,0,0,1,1.244,0l1.243,1.24A0.888,0.888,0,0,1,315.713,1987.74Zm-13.06,8.07,2.487,2.48-3.315.83Zm10.573-5.59-7.459,7.45-2.487-2.48,7.459-7.45Zm-13.461-2.55v13.56h13.543v-9.78l1.767-1.77v12.43a0.888,0.888,0,0,1-.884.89H298.882a0.887,0.887,0,0,1-.883-0.89v-15.32a0.879,0.879,0,0,1,.883-0.88h12.47l-1.766,1.76h-9.821Z" transform="translate(-298 -1985)"/>
</svg>
