<svg xmlns="http://www.w3.org/2000/svg" width="18" height="18" viewBox="0 0 18 18">
  <metadata><?xpacket begin="﻿" id="W5M0MpCehiHzreSzNTczkc9d"?>
<x:xmpmeta xmlns:x="adobe:ns:meta/" x:xmptk="Adobe XMP Core 5.6-c142 79.160924, 2017/07/13-01:06:39        ">
   <rdf:RDF xmlns:rdf="http://www.w3.org/1999/02/22-rdf-syntax-ns#">
      <rdf:Description rdf:about=""/>
   </rdf:RDF>
</x:xmpmeta>
                                                                                                    
                                                                                                    
                                                                                                    
                                                                                                    
                                                                                                    
                                                                                                    
                                                                                                    
                                                                                                    
                                                                                                    
                                                                                                    
                                                                                                    
                                                                                                    
                                                                                                    
                                                                                                    
                                                                                                    
                                                                                                    
                                                                                                    
                                                                                                    
                                                                                                    
                                                                                                    
                           
<?xpacket end="w"?></metadata>
<defs>
    <style>
      .cls-1 {
        fill: #aaa;
        fill-rule: evenodd;
      }
    </style>
  </defs>
  <path id="icon" class="cls-1" d="M487.154,2003H470.842a0.847,0.847,0,0,1-.844-0.85v-16.31a0.845,0.845,0,0,1,.844-0.84h16.312a0.845,0.845,0,0,1,.845.84v16.31A0.848,0.848,0,0,1,487.154,2003Zm-0.843-16.31H471.686v14.62h14.625v-14.62Zm-12.937,10.4h1.687a0.846,0.846,0,0,1,.843.85v1.68a0.846,0.846,0,0,1-.843.85h-1.687a0.847,0.847,0,0,1-.845-0.85v-1.68A0.847,0.847,0,0,1,473.374,1997.09Zm4.781-7.59h1.687a0.845,0.845,0,0,1,.844.84v9.28a0.847,0.847,0,0,1-.844.85h-1.687a0.848,0.848,0,0,1-.845-0.85v-9.28A0.845,0.845,0,0,1,478.155,1989.5Zm4.78,3.37h1.688a0.847,0.847,0,0,1,.844.85v5.9a0.847,0.847,0,0,1-.844.85h-1.688a0.847,0.847,0,0,1-.843-0.85v-5.9A0.847,0.847,0,0,1,482.935,1992.87Z" transform="translate(-470 -1985)"/>
</svg>
