<svg xmlns="http://www.w3.org/2000/svg" width="18" height="18" viewBox="0 0 18 18">
  <metadata><?xpacket begin="﻿" id="W5M0MpCehiHzreSzNTczkc9d"?>
<x:xmpmeta xmlns:x="adobe:ns:meta/" x:xmptk="Adobe XMP Core 5.6-c142 79.160924, 2017/07/13-01:06:39        ">
   <rdf:RDF xmlns:rdf="http://www.w3.org/1999/02/22-rdf-syntax-ns#">
      <rdf:Description rdf:about=""/>
   </rdf:RDF>
</x:xmpmeta>





















<?xpacket end="w"?></metadata>

  <path  d="M3398,520.125v0a0.858,0.858,0,0,1-.84.871h-16.32a0.858,0.858,0,0,1-.84-0.871v0h0s0-3.173,2.25-4.328c1.42-.731.87-0.137,2.61-0.885a19.432,19.432,0,0,0,2.16-1.006l0.02-1.72a3.294,3.294,0,0,1-.86-2.134c-0.41.122-.54-0.5-0.57-0.889s-0.23-1.567.27-1.459a10.654,10.654,0,0,1-.14-1.886,3.335,3.335,0,0,1,3.27-2.819,3.065,3.065,0,0,1,3.26,2.818,10.633,10.633,0,0,1-.14,1.885c0.5-.106.28,1.08,0.25,1.459s-0.16,1.008-.56.887a3.273,3.273,0,0,1-.86,2.13l0.01,1.711s0.42,0.243,2.16.99,1.2,0.188,2.62.918c2.25,1.155,2.25,4.328,2.25,4.328h0Z" transform="translate(-3380 -503)"/>
</svg>
