<svg xmlns="http://www.w3.org/2000/svg" width="28" height="28" viewBox="0 0 28 28">
  <metadata><?xpacket begin="﻿" id="W5M0MpCehiHzreSzNTczkc9d"?>
<x:xmpmeta xmlns:x="adobe:ns:meta/" x:xmptk="Adobe XMP Core 5.6-c142 79.160924, 2017/07/13-01:06:39        ">
   <rdf:RDF xmlns:rdf="http://www.w3.org/1999/02/22-rdf-syntax-ns#">
      <rdf:Description rdf:about=""/>
   </rdf:RDF>
</x:xmpmeta>
                                                                                                    
                                                                                                    
                                                                                                    
                                                                                                    
                                                                                                    
                                                                                                    
                                                                                                    
                                                                                                    
                                                                                                    
                                                                                                    
                                                                                                    
                                                                                                    
                                                                                                    
                                                                                                    
                                                                                                    
                                                                                                    
                                                                                                    
                                                                                                    
                                                                                                    
                                                                                                    
                           
<?xpacket end="w"?></metadata>
<defs>
    <style>
      .cls-1 {
        fill: #98c12f;
        fill-rule: evenodd;
      }
    </style>
  </defs>
  <path id="icon" class="cls-1" d="M370,2107a14,14,0,1,1,14-14A14,14,0,0,1,370,2107Zm0-25.38A11.375,11.375,0,1,0,381.373,2093,11.38,11.38,0,0,0,370,2081.62Zm5.687,12.69h-4.374v4.37a1.313,1.313,0,1,1-2.625,0v-4.37H364.31a1.31,1.31,0,1,1,0-2.62h4.376v-4.38a1.313,1.313,0,0,1,2.625,0v4.38h4.374A1.31,1.31,0,1,1,375.685,2094.31Z" transform="translate(-356 -2079)"/>
</svg>
