<svg width="32" height="32" viewBox="0 0 32 32" fill="none" xmlns="http://www.w3.org/2000/svg">
<g clip-path="url(#clip0_3404_413)">
<path d="M10.74 0C10.4075 0 10.26 0.0850003 9.99996 0.18C9.73996 0.275 9.43996 0.4075 9.07996 0.56C8.35996 0.8625 7.45996 1.2625 6.51996 1.66C5.57996 2.0575 4.60746 2.4475 3.75996 2.74C2.91246 3.0325 2.16246 3.2 1.83996 3.2H0.639961C0.409961 3.1975 0.194961 3.3175 0.0774611 3.5175C-0.0375391 3.7175 -0.0375391 3.9625 0.0774611 4.1625C0.194961 4.3625 0.409961 4.4825 0.639961 4.48H1.83996C2.50746 4.48 3.26246 4.2475 4.15996 3.94C5.05746 3.6325 6.06996 3.2225 7.01996 2.82C7.96996 2.4175 8.87746 2.0175 9.57996 1.72C9.93246 1.5725 10.2175 1.46 10.44 1.38C10.55 1.34 10.6725 1.315 10.74 1.3C10.7975 1.315 10.8975 1.3425 11 1.38C11.205 1.455 11.4825 1.5625 11.8 1.7C12.435 1.9775 13.215 2.3525 14 2.74C14.785 3.1275 15.5725 3.5225 16.16 3.84C16.455 4 16.705 4.155 16.88 4.26C16.9675 4.3125 17.0375 4.35 17.08 4.38C17.035 4.3325 17.1375 4.46 17.24 4.62C17.35 4.7875 17.4925 5.0125 17.66 5.28C17.995 5.8175 18.4075 6.4975 18.82 7.18C19.64 8.535 20.4325 9.845 20.44 9.86V9.88C20.4725 9.9475 20.49 10.135 20.44 10.3C20.3875 10.4725 20.315 10.5775 20.2 10.62C20.185 10.625 19.9725 10.64 19.78 10.58C19.5875 10.52 19.41 10.3975 19.38 10.36C19.38 10.36 18.5175 9.2825 17.64 8.2C17.2025 7.66 16.7575 7.1175 16.42 6.7C16.2525 6.49 16.1225 6.3075 16.02 6.18C15.9175 6.0525 15.8025 5.9175 15.86 6C15.76 5.86 15.7175 5.845 15.68 5.82C15.6425 5.795 15.6075 5.775 15.58 5.76C15.525 5.7325 15.4775 5.705 15.42 5.68C15.305 5.63 15.1675 5.5825 15 5.52C14.665 5.3925 14.2375 5.23 13.8 5.08C13.3625 4.93 12.915 4.79 12.56 4.68C12.3825 4.625 12.23 4.575 12.1 4.54C11.97 4.505 11.95 4.48 11.7 4.48C11.6475 4.48 10.9725 4.4325 10.32 4.68C9.66746 4.9275 8.95996 5.6375 8.95996 6.72C8.95996 7.665 9.62996 8.31 10.22 8.6C10.81 8.89 11.2675 8.96 11.6 8.96C11.8575 8.96 12.3325 8.9125 12.96 8.9C13.5875 8.8875 14.305 8.915 14.74 9C15.615 9.1725 16.925 9.9 17.66 10.42C18.215 10.81 18.2925 11.2775 18.18 11.6C18.0675 11.9225 17.765 12.2225 16.94 12.14C16.775 12.1225 15.9225 11.97 15.08 11.82C14.2375 11.67 13.3925 11.52 12.82 11.52C12.23 11.52 11.375 11.68 10.34 11.84C9.30496 12 8.15746 12.16 7.33996 12.16C6.00246 12.16 5.33496 11.6575 4.43996 11.02C3.54496 10.3825 2.43246 9.62 0.639961 9.62C0.409961 9.6175 0.194961 9.7375 0.0774611 9.9375C-0.0375391 10.1375 -0.0375391 10.3825 0.0774611 10.5825C0.194961 10.7825 0.409961 10.9025 0.639961 10.9C2.09996 10.9 2.81746 11.43 3.69996 12.06C4.58246 12.69 5.64746 13.44 7.33996 13.44C8.30996 13.44 9.46996 13.28 10.52 13.12C11.57 12.96 12.5475 12.8 12.82 12.8C13.0925 12.8 13.93 12.9225 14.72 13.06V14.72C14.7175 14.9675 14.8575 15.1925 15.08 15.3L16.36 15.94C16.4475 15.98 16.5425 16.0025 16.64 16V20.48C16.635 20.65 16.7 20.8175 16.82 20.94L17.46 21.58C17.5825 21.7 17.75 21.765 17.92 21.76H19.2C19.37 21.765 19.5375 21.7 19.66 21.58L20.3 20.94C20.42 20.8175 20.485 20.65 20.48 20.48V16C20.5775 16.0025 20.6725 15.98 20.76 15.94L22.04 15.3C22.2625 15.1925 22.4025 14.9675 22.4 14.72V11.52C22.405 11.35 22.34 11.1825 22.22 11.06L21.7 10.54C21.805 10.1025 21.775 9.655 21.54 9.24C21.54 9.2325 21.54 9.2275 21.54 9.22C21.54 9.22 20.7475 7.8875 19.92 6.52C19.5075 5.835 19.08 5.145 18.74 4.6C18.57 4.3275 18.4375 4.1025 18.32 3.92C18.2025 3.7375 18.16 3.655 18.02 3.5C17.905 3.3725 17.855 3.37 17.78 3.32C17.705 3.27 17.62 3.2 17.52 3.14C17.32 3.0225 17.0625 2.885 16.76 2.72C16.1525 2.3925 15.3775 1.995 14.58 1.6C13.7825 1.205 12.965 0.81 12.3 0.52C11.9675 0.375 11.67 0.25 11.42 0.16C11.17 0.07 11.055 0 10.74 0ZM11.62 5.76C11.645 5.7625 11.71 5.7675 11.76 5.78C11.8625 5.8075 12.0125 5.8475 12.18 5.9C12.5175 6.0025 12.9525 6.155 13.38 6.3C13.8075 6.445 14.2275 6.6025 14.54 6.72C14.6975 6.78 14.8175 6.825 14.9 6.86C14.92 6.87 14.9275 6.875 14.94 6.88C14.965 6.91 14.9775 6.9275 15.02 6.98C15.125 7.11 15.27 7.29 15.44 7.5C15.5675 7.66 15.7475 7.8925 15.9 8.08C15.595 7.965 15.305 7.8 15 7.74C14.365 7.615 13.605 7.6075 12.94 7.62C12.275 7.6325 11.6225 7.68 11.6 7.68C11.6525 7.68 11.125 7.61 10.78 7.44C10.435 7.27 10.24 7.115 10.24 6.72C10.24 6.0925 10.45 6.005 10.78 5.88C11.0775 5.7675 11.395 5.76 11.62 5.76ZM20.96 11.64L21.12 11.8V14.32L20.32 14.72H19.84C19.4875 14.72 19.2 15.0075 19.2 15.36V20.2L18.92 20.48H18.2L17.92 20.2V15.36C17.92 15.0075 17.6325 14.72 17.28 14.72H16.8L16 14.32V13.3C16.3375 13.3625 16.625 13.4 16.82 13.42C17.165 13.455 17.4825 13.4275 17.78 13.36C17.955 13.6025 18.24 13.76 18.56 13.76C19.09 13.76 19.52 13.33 19.52 12.8C19.52 12.57 19.435 12.365 19.3 12.2C19.33 12.1375 19.3775 12.085 19.4 12.02C19.425 11.9475 19.3825 11.8725 19.4 11.8C19.78 11.92 20.185 11.9775 20.62 11.82C20.745 11.775 20.855 11.71 20.96 11.64ZM24.54 21.16C23.6825 21.215 22.9375 21.4475 22.22 21.74C20.785 22.325 19.3275 23.06 16.24 23.06C15.735 23.06 15.3075 23.1075 14.92 23.18C14.7575 23.115 13.82 22.7225 12.68 22.3C12.06 22.07 11.41 21.8375 10.84 21.66C10.27 21.4825 9.86246 21.34 9.41996 21.34C8.92496 21.34 8.37246 21.4725 7.89996 21.8C7.53246 22.055 7.20246 22.47 7.07996 22.98C6.90496 22.9375 6.72496 22.9 6.51996 22.9C6.10496 22.9 5.65246 23.0425 5.23996 23.36C4.82746 23.6775 4.47996 24.235 4.47996 24.92C4.47996 25.46 4.61996 25.97 4.93996 26.34C5.25996 26.71 5.67996 26.9125 6.15996 27.12C6.60996 27.315 9.44246 28.5175 12.32 29.68C13.76 30.2625 15.21 30.8325 16.38 31.26C16.965 31.475 17.4625 31.6525 17.88 31.78C18.2975 31.9075 18.57 32 18.92 32C19.355 32 19.7125 31.8575 20.28 31.68C20.8475 31.5025 21.535 31.265 22.22 31.02C23.59 30.5275 25.0225 30.0025 25.54 29.84C27.485 29.225 28.94 30.34 28.94 30.34C29.2225 30.555 29.625 30.5025 29.84 30.22C30.055 29.9375 30.0025 29.535 29.72 29.32C29.72 29.32 27.7025 27.81 25.14 28.62C24.505 28.82 23.135 29.3325 21.78 29.82C21.1025 30.0625 20.435 30.2925 19.9 30.46C19.365 30.6275 18.89 30.72 18.92 30.72C18.98 30.72 18.64 30.6775 18.26 30.56C17.88 30.4425 17.3925 30.27 16.82 30.06C15.675 29.6425 14.2325 29.0775 12.8 28.5C9.93746 27.3425 7.08496 26.1225 6.65996 25.94C6.23746 25.7575 6.01996 25.615 5.91996 25.5C5.81996 25.385 5.75996 25.2725 5.75996 24.92C5.75996 24.6225 5.85996 24.5025 6.01996 24.38C6.17996 24.2575 6.43246 24.18 6.51996 24.18C6.59496 24.18 6.86246 24.245 7.07996 24.3C7.28746 24.3525 7.44496 24.395 7.45996 24.4H7.47996L13.08 26.32C13.31 26.7125 13.665 27.0125 14.06 27.18C14.725 27.4625 15.49 27.52 16.26 27.52H19.84C21.57 27.52 23.8 26.82 23.8 26.82C24.0425 26.7775 24.2375 26.6 24.305 26.3625C24.3725 26.125 24.2975 25.8725 24.1125 25.71C23.9275 25.5475 23.6675 25.505 23.44 25.6C23.44 25.6 21.1975 26.24 19.84 26.24H16.26C15.5675 26.24 14.9275 26.1575 14.56 26C14.1925 25.8425 14.1 25.7775 14.1 25.4C14.1 25.04 14.1525 24.8775 14.4 24.7C14.52 24.615 14.71 24.5275 15 24.46C15.0075 24.46 15.0125 24.46 15.02 24.46C15.3225 24.3925 15.73 24.34 16.24 24.34C19.54 24.34 21.3275 23.48 22.7 22.92C24.0725 22.36 24.94 22.0625 27.12 22.9C28.6125 23.475 31.12 24.52 31.12 24.52C31.335 24.6325 31.5975 24.615 31.795 24.4725C31.9925 24.3275 32.09 24.085 32.05 23.845C32.0075 23.605 31.835 23.41 31.6 23.34C31.6 23.34 29.115 22.29 27.58 21.7C26.37 21.235 25.3975 21.105 24.54 21.16ZM9.41996 22.62C9.45246 22.62 9.92746 22.715 10.46 22.88C10.9925 23.045 11.6325 23.275 12.24 23.5C12.8275 23.7175 12.9375 23.7725 13.36 23.94C13.11 24.22 12.955 24.555 12.88 24.9L8.33996 23.34C8.36496 23.1175 8.45496 22.99 8.63996 22.86C8.85246 22.7125 9.18746 22.62 9.41996 22.62Z" fill="#A1A1A1"/>
</g>
<defs>
<clipPath id="clip0_3404_413">
<rect width="32" height="32" fill="white"/>
</clipPath>
</defs>
</svg>
