<svg width="20" height="20" viewBox="0 0 20 20" fill="none" xmlns="http://www.w3.org/2000/svg">
<path fill-rule="evenodd" clip-rule="evenodd" d="M7.5 4C7.5 3.17157 8.17157 2.5 9 2.5H11C11.8284 2.5 12.5 3.17157 12.5 4H7.5ZM6.5 4C6.5 2.61929 7.61929 1.5 9 1.5H11C12.3807 1.5 13.5 2.61929 13.5 4H16.5C16.7761 4 17 4.22386 17 4.5C17 4.77614 16.7761 5 16.5 5H16V16.5C16 17.8807 14.8807 19 13.5 19H6.5C5.11929 19 4 17.8807 4 16.5V5H3.5C3.22386 5 3 4.77614 3 4.5C3 4.22386 3.22386 4 3.5 4H6.5ZM5 5H15V16.5C15 17.3284 14.3284 18 13.5 18H6.5C5.67157 18 5 17.3284 5 16.5V5ZM8.5 8C8.77614 8 9 8.22386 9 8.5V13.5C9 13.7761 8.77614 14 8.5 14C8.22386 14 8 13.7761 8 13.5V8.5C8 8.22386 8.22386 8 8.5 8ZM12 8.5C12 8.22386 11.7761 8 11.5 8C11.2239 8 11 8.22386 11 8.5V13.5C11 13.7761 11.2239 14 11.5 14C11.7761 14 12 13.7761 12 13.5V8.5Z" fill="#A1A1A1"/>
</svg>
