<svg width="20" height="20" viewBox="0 0 20 20" fill="none" xmlns="http://www.w3.org/2000/svg">
<path fill-rule="evenodd" clip-rule="evenodd" d="M16 3C15.4477 3 15 3.44772 15 4V16C15 16.5523 15.4477 17 16 17C16.5523 17 17 16.5523 17 16V4C17 3.44772 16.5523 3 16 3ZM8 6C7.44772 6 7 6.44772 7 7V16C7 16.5523 7.44772 17 8 17C8.55228 17 9 16.5523 9 16V7C9 6.44772 8.55228 6 8 6ZM4 11C3.44772 11 3 11.4477 3 12V16C3 16.5523 3.44772 17 4 17C4.55228 17 5 16.5523 5 16V12C5 11.4477 4.55228 11 4 11ZM11 10C11 9.44772 11.4477 9 12 9C12.5523 9 13 9.44772 13 10V16C13 16.5523 12.5523 17 12 17C11.4477 17 11 16.5523 11 16V10Z" fill="#A1A1A1"/>
</svg>
