<svg xmlns="http://www.w3.org/2000/svg" width="18" height="18" viewBox="0 0 18 18">
  <metadata><?xpacket begin="﻿" id="W5M0MpCehiHzreSzNTczkc9d"?>
<x:xmpmeta xmlns:x="adobe:ns:meta/" x:xmptk="Adobe XMP Core 5.6-c142 79.160924, 2017/07/13-01:06:39        ">
   <rdf:RDF xmlns:rdf="http://www.w3.org/1999/02/22-rdf-syntax-ns#">
      <rdf:Description rdf:about=""/>
   </rdf:RDF>
</x:xmpmeta>





















<?xpacket end="w"?></metadata>

  <path  d="M3397.16,668h-16.32a0.891,0.891,0,0,1-.84-0.931V655.584a0.893,0.893,0,0,1,.84-0.932h3.94a4.24,4.24,0,1,1,8.44,0h3.94a0.893,0.893,0,0,1,.84.932v11.482A0.891,0.891,0,0,1,3397.16,668ZM3389,651.86a2.669,2.669,0,0,0-2.53,2.792h5.06A2.669,2.669,0,0,0,3389,651.86Zm3.09,8.379h-2.25v-2.482a0.849,0.849,0,1,0-1.69,0v2.482h-2.25a0.936,0.936,0,0,0,0,1.862h2.25v2.483a0.849,0.849,0,1,0,1.69,0V662.1h2.25A0.935,0.935,0,0,0,3392.09,660.239Z" transform="translate(-3380 -650)"/>
</svg>
