<svg width="32" height="32" viewBox="0 0 32 32" fill="none" xmlns="http://www.w3.org/2000/svg">
<path d="M15.9763 0.674816C15.8419 0.679449 15.7125 0.726243 15.6063 0.808566L0.886263 12.2948C0.752329 12.3992 0.665364 12.5526 0.644501 12.7212C0.623638 12.8897 0.670584 13.0596 0.775013 13.1936C0.879442 13.3275 1.0328 13.4145 1.20135 13.4353C1.3699 13.4562 1.53983 13.4092 1.67376 13.3048L2.56001 12.6136V29.4398C2.56003 29.6096 2.62746 29.7723 2.74748 29.8923C2.8675 30.0124 3.03028 30.0798 3.20001 30.0798H12.0525C12.1216 30.0912 12.1921 30.0912 12.2613 30.0798H19.7325C19.8016 30.0912 19.8721 30.0912 19.9413 30.0798H28.8C28.9697 30.0798 29.1325 30.0124 29.2525 29.8923C29.3726 29.7723 29.44 29.6096 29.44 29.4398V12.6136L30.3263 13.3048C30.3926 13.3565 30.4684 13.3947 30.5495 13.4171C30.6306 13.4395 30.7152 13.4457 30.7987 13.4354C30.8822 13.425 30.9628 13.3984 31.0359 13.3569C31.1091 13.3154 31.1733 13.2599 31.225 13.1936C31.2768 13.1273 31.3149 13.0514 31.3373 12.9704C31.3597 12.8893 31.3659 12.8046 31.3556 12.7212C31.3452 12.6377 31.3186 12.5571 31.2771 12.4839C31.2356 12.4108 31.1801 12.3465 31.1138 12.2948L26.24 8.49232V3.83982H22.4V5.49482L16.3938 0.808566C16.2747 0.716227 16.1268 0.668864 15.9763 0.674816ZM16 2.12607L28.16 11.6148V28.7998H20.48V16.6398H11.52V28.7998H3.84001V11.6148L16 2.12607ZM23.68 5.11982H24.96V7.49357L23.68 6.49357V5.11982ZM12.8 17.9198H19.2V28.7998H12.8V17.9198Z" fill="#A1A1A1"/>
</svg>
