<svg xmlns="http://www.w3.org/2000/svg" width="16" height="16" viewBox="0 0 16 16">
  <metadata><?xpacket begin="﻿" id="W5M0MpCehiHzreSzNTczkc9d"?>
<x:xmpmeta xmlns:x="adobe:ns:meta/" x:xmptk="Adobe XMP Core 5.6-c142 79.160924, 2017/07/13-01:06:39        ">
   <rdf:RDF xmlns:rdf="http://www.w3.org/1999/02/22-rdf-syntax-ns#">
      <rdf:Description rdf:about=""/>
   </rdf:RDF>
</x:xmpmeta>
                                                                                                    
                                                                                                    
                                                                                                    
                                                                                                    
                                                                                                    
                                                                                                    
                                                                                                    
                                                                                                    
                                                                                                    
                                                                                                    
                                                                                                    
                                                                                                    
                                                                                                    
                                                                                                    
                                                                                                    
                                                                                                    
                                                                                                    
                                                                                                    
                                                                                                    
                                                                                                    
                           
<?xpacket end="w"?></metadata>
<defs>
    <style>
      .cls-1 {
        fill: #fff;
        fill-rule: evenodd;
      }
    </style>
  </defs>
  <path id="icon" class="cls-1" d="M3437.97,3486.59a0.469,0.469,0,0,1-.35-0.15,0.483,0.483,0,0,1,0-.7l6.05-6.11a0.5,0.5,0,0,1,.71.71l-6.06,6.1A0.469,0.469,0,0,1,3437.97,3486.59Zm2.46-1.21a2.09,2.09,0,0,1-.57,2.01l-2.02,1.95a2.249,2.249,0,0,1-3.19-3.17l1.97-2.04a2.265,2.265,0,0,1,1.59-.66,2.35,2.35,0,0,1,.6.09l0.78-.78a3.343,3.343,0,0,0-1.38-.31,3.234,3.234,0,0,0-2.29.95l-1.97,2.03a3.249,3.249,0,1,0,4.59,4.6l2.02-1.95a3.11,3.11,0,0,0,.66-3.51Zm7.61-9.43a3.247,3.247,0,0,0-4.59,0l-2.02,1.95a3.261,3.261,0,0,0-.62,3.72l0.78-.78a2.219,2.219,0,0,1,.55-2.23l2.01-1.95a2.249,2.249,0,0,1,3.19,3.17l-2.02,2.02a2.207,2.207,0,0,1-1.59.66,2.045,2.045,0,0,1-.43-0.01l-0.8.79a3.078,3.078,0,0,0,1.23.22,3.274,3.274,0,0,0,2.3-.95l2.01-2.02A3.241,3.241,0,0,0,3448.04,3475.95Z" transform="translate(-3433 -3475)"/>
</svg>
