<svg xmlns="http://www.w3.org/2000/svg" width="18" height="18" viewBox="0 0 18 18">
  <metadata><?xpacket begin="﻿" id="W5M0MpCehiHzreSzNTczkc9d"?>
<x:xmpmeta xmlns:x="adobe:ns:meta/" x:xmptk="Adobe XMP Core 5.6-c142 79.160924, 2017/07/13-01:06:39        ">
   <rdf:RDF xmlns:rdf="http://www.w3.org/1999/02/22-rdf-syntax-ns#">
      <rdf:Description rdf:about=""/>
   </rdf:RDF>
</x:xmpmeta>





















<?xpacket end="w"?></metadata>

  <path  d="M3389.48,567.444a11.816,11.816,0,0,1-1.88-.308,6.708,6.708,0,0,1-6.35,2.809c2.74-1.458,2.69-3.872,2.2-4.194a7.21,7.21,0,0,1-3.45-6.008c0-4.278,4.19-7.747,9.48-7.747s8.52,3.469,8.52,7.747S3394.77,567.444,3389.48,567.444ZM3384.79,558a1.9,1.9,0,1,0,1.69,1.892A1.8,1.8,0,0,0,3384.79,558Zm4.22,0a1.906,1.906,0,1,0,1.68,1.892A1.795,1.795,0,0,0,3389.01,558Zm4.21,0a1.9,1.9,0,1,0,1.69,1.892A1.793,1.793,0,0,0,3393.22,558Z" transform="translate(-3380 -552)"/>
</svg>
