<svg width="20" height="20" viewBox="0 0 20 20" fill="none" xmlns="http://www.w3.org/2000/svg">
<path d="M15.4038 2C14.739 2 14.0701 2.25671 13.564 2.76282L2.73069 13.5897C2.66962 13.6506 2.62925 13.7291 2.61531 13.8141L2.00633 17.5192C1.99538 17.5834 1.99986 17.6493 2.0194 17.7114C2.03894 17.7735 2.07297 17.83 2.11869 17.8764C2.16442 17.9227 2.22051 17.9575 2.28234 17.9779C2.34417 17.9983 2.40996 18.0037 2.47428 17.9936L6.17941 17.3782C6.26446 17.3643 6.34296 17.3239 6.40377 17.2628L17.2371 6.42949C18.2493 5.41726 18.2493 3.77505 17.2371 2.76282C16.731 2.25671 16.0686 2 15.4038 2ZM15.4038 2.8141C15.8562 2.8141 16.3096 2.98915 16.6602 3.33974C17.3614 4.04094 17.3614 5.15137 16.6602 5.85256L15.7179 6.79487L13.2051 4.28205L14.1474 3.33974C14.498 2.98915 14.9513 2.8141 15.4038 2.8141ZM12.6281 4.85897L15.1409 7.3718L6.14095 16.3718L3.62813 13.859L12.6281 4.85897ZM3.30761 14.6987L5.3012 16.6923L2.91018 17.0897L3.30761 14.6987Z" fill="#A1A1A1"/>
</svg>
