<svg xmlns="http://www.w3.org/2000/svg" width="18" height="18" viewBox="0 0 18 18">
  <metadata><?xpacket begin="﻿" id="W5M0MpCehiHzreSzNTczkc9d"?>
<x:xmpmeta xmlns:x="adobe:ns:meta/" x:xmptk="Adobe XMP Core 5.6-c142 79.160924, 2017/07/13-01:06:39        ">
   <rdf:RDF xmlns:rdf="http://www.w3.org/1999/02/22-rdf-syntax-ns#">
      <rdf:Description rdf:about=""/>
   </rdf:RDF>
</x:xmpmeta>





















<?xpacket end="w"?></metadata>

  <path  d="M3397.77,618.7l-5.5-7.23,5.48-5.858a1,1,0,0,1,.25.662v11.793A0.985,0.985,0,0,1,3397.77,618.7Zm-17.49-13.114a0.785,0.785,0,0,1,.56-0.242h4.94a1.616,1.616,0,0,0,1.25.62,1.469,1.469,0,0,0,.28-0.034v2.517a1.7,1.7,0,1,0,3.38,0v-2.517a1.469,1.469,0,0,0,.28.034,1.616,1.616,0,0,0,1.25-.62h4.94a0.8,0.8,0,0,1,.56.242L3389,613.1Zm10.69-.553a0.794,0.794,0,0,1-.6-0.273l-0.53-.582v4.269a0.844,0.844,0,1,1-1.68,0v-4.269l-0.53.582a0.827,0.827,0,0,1-.6.273,0.885,0.885,0,0,1-.84-0.931,0.985,0.985,0,0,1,.24-0.658l1.97-2.173A0.812,0.812,0,0,1,3389,601a0.829,0.829,0,0,1,.6.272l1.96,2.173a0.945,0.945,0,0,1,.25.658A0.892,0.892,0,0,1,3390.97,605.032ZM3380.23,618.7a0.985,0.985,0,0,1-.23-0.633V606.273a1,1,0,0,1,.25-0.662l5.48,5.858Zm8.77-3.736,2.29-2.446,6.44,6.225a0.786,0.786,0,0,1-.57.256h-16.32a0.825,0.825,0,0,1-.58-0.256l6.45-6.225Z" transform="translate(-3380 -601)"/>
</svg>
