<svg xmlns="http://www.w3.org/2000/svg" width="18" height="15" viewBox="0 0 18 15">
  <metadata><?xpacket begin="﻿" id="W5M0MpCehiHzreSzNTczkc9d"?>
<x:xmpmeta xmlns:x="adobe:ns:meta/" x:xmptk="Adobe XMP Core 5.6-c142 79.160924, 2017/07/13-01:06:39        ">
   <rdf:RDF xmlns:rdf="http://www.w3.org/1999/02/22-rdf-syntax-ns#">
      <rdf:Description rdf:about=""/>
   </rdf:RDF>
</x:xmpmeta>
                                                                                                    
                                                                                                    
                                                                                                    
                                                                                                    
                                                                                                    
                                                                                                    
                                                                                                    
                                                                                                    
                                                                                                    
                                                                                                    
                                                                                                    
                                                                                                    
                                                                                                    
                                                                                                    
                                                                                                    
                                                                                                    
                                                                                                    
                                                                                                    
                                                                                                    
                                                                                                    
                           
<?xpacket end="w"?></metadata>
<defs>
    <style>
      .cls-1 {
        fill: #aaa;
        fill-rule: evenodd;
      }
    </style>
  </defs>
  <path id="icon" class="cls-1" d="M356.154,1602H339.843a0.858,0.858,0,0,1-.845-0.87v-11.54a0.856,0.856,0,0,1,.845-0.86h3.6l1.351-1.39a0.824,0.824,0,0,1,.67-0.34h5.063a0.831,0.831,0,0,1,.6.26h0l1.433,1.47h3.587a0.856,0.856,0,0,1,.845.86v11.54A0.859,0.859,0,0,1,356.154,1602ZM348,1589.88a5.2,5.2,0,1,0,5.062,5.2A5.134,5.134,0,0,0,348,1589.88Zm0,8.66a3.466,3.466,0,1,1,3.374-3.46A3.42,3.42,0,0,1,348,1598.54Z" transform="translate(-339 -1587)"/>
</svg>
