<svg xmlns="http://www.w3.org/2000/svg" width="20" height="20" viewBox="0 0 20 20">
  <metadata><?xpacket begin="﻿" id="W5M0MpCehiHzreSzNTczkc9d"?>
<x:xmpmeta xmlns:x="adobe:ns:meta/" x:xmptk="Adobe XMP Core 5.6-c142 79.160924, 2017/07/13-01:06:39        ">
   <rdf:RDF xmlns:rdf="http://www.w3.org/1999/02/22-rdf-syntax-ns#">
      <rdf:Description rdf:about=""/>
   </rdf:RDF>
</x:xmpmeta>





















<?xpacket end="w"?></metadata>

  <path d="M2010,356.246c2.13,0,4.38,1.789,4.38,3.125V362.5c0,1.2-.5,3.506-1.84,4.562a1.25,1.25,0,0,0,.25,2.12l5.44,2.582a0.7,0.7,0,0,1,.52.769v1.221h-17.5v-1.269a0.764,0.764,0,0,1,.52-0.723l5.5-2.592a1.261,1.261,0,0,0,.26-2.112,6.648,6.648,0,0,1-1.91-4.559v-3.127c0-1.307,2.28-3.125,4.38-3.125m0-1.251c-2.76,0-5.63,2.305-5.63,4.376V362.5c0,1.366.62,4.13,2.37,5.534l-5.49,2.593s-1.25.557-1.25,1.251v1.877a1.25,1.25,0,0,0,1.25,1.25h17.5a1.25,1.25,0,0,0,1.25-1.25v-1.877c0-.736-1.25-1.251-1.25-1.251l-5.44-2.582c1.73-1.364,2.32-4.044,2.32-5.545v-3.127c0-2.071-2.87-4.376-5.63-4.376h0Z" transform="translate(-2000 -355)"/>
</svg>
