<svg width="40" height="24" viewBox="0 0 40 24" fill="none" xmlns="http://www.w3.org/2000/svg">
<path d="M38.4 0H1.6C0.716344 0 0 0.716344 0 1.6V22.4C0 23.2837 0.716344 24 1.6 24H38.4C39.2837 24 40 23.2837 40 22.4V1.6C40 0.716344 39.2837 0 38.4 0Z" fill="#26337A"/>
<path fill-rule="evenodd" clip-rule="evenodd" d="M16.5957 15.8191L17.8256 8.18945H19.7915L18.5618 15.8191H16.5957Z" fill="#FFFFFE"/>
<path fill-rule="evenodd" clip-rule="evenodd" d="M25.693 8.37675C25.3043 8.22363 24.6929 8.05664 23.9314 8.05664C21.9877 8.05664 20.6195 9.09202 20.6081 10.5746C20.5958 11.6713 21.5845 12.2829 22.3299 12.6474C23.0959 13.021 23.3533 13.2601 23.3503 13.5942C23.345 14.1052 22.7388 14.3393 22.1736 14.3393C21.3865 14.3393 20.9683 14.2241 20.3217 13.9392L20.0689 13.8178L19.7939 15.5256C20.2524 15.7381 21.1022 15.9226 21.9842 15.9322C24.0499 15.9322 25.3921 14.9094 25.4079 13.3262C25.4149 12.4565 24.8911 11.7974 23.7565 11.2531C23.0695 10.8993 22.6478 10.665 22.6527 10.3069C22.6531 9.98982 23.0089 9.65033 23.7789 9.65033C24.422 9.63996 24.8875 9.78847 25.2502 9.94351L25.4267 10.0307L25.693 8.37675Z" fill="#FFFFFE"/>
<path fill-rule="evenodd" clip-rule="evenodd" d="M28.311 13.1141C28.4739 12.6756 29.0942 10.9815 29.0942 10.9815C29.0827 11.0017 29.2562 10.5396 29.3555 10.2536L29.4882 10.9116C29.4882 10.9116 29.8654 12.7327 29.9431 13.1141H28.311ZM30.7364 8.19727H29.2171C28.7458 8.19727 28.3931 8.33225 28.1867 8.82972L25.2671 15.8218H27.332C27.332 15.8218 27.6689 14.8812 27.7453 14.6748C27.9705 14.6748 29.977 14.6787 30.2634 14.6787C30.3223 14.945 30.5027 15.8218 30.5027 15.8218H32.3275L30.7364 8.19727Z" fill="#FFFFFE"/>
<path fill-rule="evenodd" clip-rule="evenodd" d="M14.947 8.19531L13.0227 13.3969L12.8166 12.3395C12.458 11.1213 11.3418 9.80083 10.0933 9.1392L11.8537 15.8119L13.9343 15.8106L17.0303 8.19531H14.947Z" fill="#FFFFFE"/>
<path fill-rule="evenodd" clip-rule="evenodd" d="M11.236 8.19043H8.06564L8.03955 8.34851C10.5064 8.98051 12.1386 10.506 12.8161 12.3398L12.1272 8.83415C12.0083 8.35065 11.6629 8.20733 11.236 8.19043Z" fill="#EC982D"/>
</svg>
