<svg width="80" height="80" viewBox="0 0 80 80" fill="none" xmlns="http://www.w3.org/2000/svg">
<circle cx="40" cy="40" r="40" fill="#E8E8E8"/>
<g clip-path="url(#clip0)">
<path d="M39.4574 20.3027C25.4102 20.3027 25.4102 31.4747 25.4102 38.2277C25.4102 43.5631 29.3375 48.0976 34.8118 49.7675C34.8674 49.3757 34.9475 48.9354 35.0587 48.4377C33.4079 47.6191 32.0182 46.3562 31.0458 44.7911C30.0733 43.226 29.5567 41.4207 29.554 39.5781C29.554 36.8884 29.554 33.2048 31.1239 30.2629L31.8422 28.9169L33.1808 29.6489C37.2208 31.8581 42.2004 33.4597 47.981 34.409L49.1393 34.5993L49.2407 35.7687C49.3607 37.1515 49.3607 38.497 49.3607 39.5781C49.358 41.4207 48.8414 43.226 47.869 44.7911C46.8965 46.3563 45.5068 47.6191 43.8561 48.4378C43.9673 48.9354 44.0473 49.3757 44.1029 49.7675C49.5773 48.0976 53.5046 43.5631 53.5046 38.2277C53.5046 31.4746 53.5046 20.3027 39.4574 20.3027Z" fill="#A1A1A1"/>
<path d="M44.1411 51.9551C44.0919 52.2719 43.9785 52.5753 43.8079 52.8467C42.8948 54.333 40.2471 54.4485 39.4573 54.4485C38.6676 54.4485 36.0199 54.333 35.1067 52.8467C34.9362 52.5753 34.8228 52.2719 34.7735 51.9551C31.7184 52.6809 28.9352 54.2668 26.7533 56.5252C26.47 56.8299 26.2574 57.1934 26.1309 57.5897C26.0043 57.9861 25.9669 58.4055 26.0213 58.818C26.0757 59.2305 26.2205 59.6258 26.4455 59.9758C26.6704 60.3258 26.9699 60.6218 27.3226 60.8426C30.1813 62.6085 34.0956 63.6967 39.4573 63.6967C44.819 63.6967 48.7333 62.6085 51.5921 60.8426C51.9447 60.6218 52.2442 60.3258 52.4691 59.9758C52.6941 59.6258 52.8389 59.2305 52.8933 58.818C52.9477 58.4055 52.9103 57.9861 52.7838 57.5897C52.6572 57.1934 52.4447 56.8299 52.1613 56.5252C49.9795 54.2668 47.1962 52.6809 44.1411 51.9551Z" fill="#A1A1A1"/>
</g>
<defs>
<clipPath id="clip0">
<rect width="28.9143" height="44" fill="white" transform="translate(25 20)"/>
</clipPath>
</defs>
</svg>
