<svg xmlns="http://www.w3.org/2000/svg" style="display:none"><defs><style>.cls-1{fill:#aaa;fill-rule:evenodd}</style><style>.cls-1{fill:#aaa;fill-rule:evenodd}</style><style>.cls-1{fill:#d7d7d7;fill-rule:evenodd}</style><style>.cls-1{fill:#98c12f;fill-rule:evenodd}</style><style>.cls-1{fill:#aaa;fill-rule:evenodd}</style></defs><symbol id="icon-add" viewBox="0 0 18 18"><path d="M17.16 18H.84a.891.891 0 0 1-.84-.931V5.584a.893.893 0 0 1 .84-.932h3.94a4.24 4.24 0 1 1 8.44 0h3.94a.893.893 0 0 1 .84.932v11.482a.891.891 0 0 1-.84.934zM9 1.86a2.669 2.669 0 0 0-2.53 2.792h5.06A2.669 2.669 0 0 0 9 1.86zm3.09 8.379H9.84V7.757a.849.849 0 1 0-1.69 0v2.482H5.9a.936.936 0 0 0 0 1.862h2.25v2.483a.849.849 0 1 0 1.69 0V12.1h2.25a.935.935 0 0 0 0-1.861z"/></symbol><symbol id="icon-camera" viewBox="0 0 18 15"><path id="icon" class="cls-1" d="M356.154 1602h-16.311a.858.858 0 0 1-.845-.87v-11.54a.856.856 0 0 1 .845-.86h3.6l1.351-1.39a.824.824 0 0 1 .67-.34h5.063a.831.831 0 0 1 .6.26l1.433 1.47h3.587a.856.856 0 0 1 .845.86v11.54a.859.859 0 0 1-.838.87zM348 1589.88a5.2 5.2 0 1 0 5.062 5.2 5.134 5.134 0 0 0-5.062-5.2zm0 8.66a3.466 3.466 0 1 1 3.374-3.46 3.42 3.42 0 0 1-3.374 3.46z" transform="translate(-339 -1587)"/></symbol><symbol id="icon-comments" viewBox="0 0 18 18"><path d="M15.95 7.622c-.29.178-.32 1.518 1.31 2.325a4.136 4.136 0 0 1-3.77-1.555 7.527 7.527 0 0 1-1.12.17c-3.14 0-5.05-1.9-5.05-4.27S9.23-.003 12.37-.003 18 1.92 18 4.292a3.947 3.947 0 0 1-2.05 3.33zm-9.7-2.906c.14 2.626 2.35 4.824 5.73 5.045a5.7 5.7 0 0 0 1.12-.141l.1-.026a4.07 4.07 0 0 0 2.92 1.268c-.71 2.868-3.44 4.978-7.53 4.978a11.533 11.533 0 0 1-1.7-.259 6.331 6.331 0 0 1-5.76 2.377c2.49-1.235 2.44-3.279 2-3.552A6.009 6.009 0 0 1 0 9.322c0-3.087 2.76-5.668 6.55-6.366a4.545 4.545 0 0 0-.3 1.76z"/></symbol><symbol id="icon-edit" viewBox="0 0 18 18"><path id="icon" class="cls-1" d="M315.713 1987.74l-1.865 1.86-2.487-2.49 1.865-1.86a.886.886 0 0 1 1.244 0l1.243 1.24a.888.888 0 0 1 0 1.25zm-13.06 8.07l2.487 2.48-3.315.83zm10.573-5.59l-7.459 7.45-2.487-2.48 7.459-7.45zm-13.461-2.55v13.56h13.543v-9.78l1.767-1.77v12.43a.888.888 0 0 1-.884.89h-15.309a.887.887 0 0 1-.883-.89v-15.32a.879.879 0 0 1 .883-.88h12.47l-1.766 1.76h-9.821z" transform="translate(-298 -1985)"/></symbol><symbol id="icon-home" viewBox="0 0 18 18"><path d="M14.62 5.534l3.15 3.3a.905.905 0 0 1 .23.6.865.865 0 0 1-.84.885.815.815 0 0 1-.58-.239L9.02 2.15 9 2.129l-7.56 7.936h-.01a.815.815 0 0 1-.59.254.865.865 0 0 1-.84-.885.9.9 0 0 1 .26-.637L8.39.264A.818.818 0 0 1 9 0h.09a.845.845 0 0 1 .53.277l3.32 3.483m3.37 7.154v6.2a.867.867 0 0 1-.84.886h-4.39v-6.135H7.8V18H2.53a.86.86 0 0 1-.84-.886v-6.2L9 3.241z"/></symbol><symbol id="icon-left-arrow" viewBox="0 0 31.49 31.49"><path d="M10.285 5.007a1.112 1.112 0 0 1 1.587 0 1.12 1.12 0 0 1 0 1.571l-8.047 8.047h26.554a1.106 1.106 0 0 1 1.111 1.112c0 .619-.492 1.127-1.111 1.127H3.825l8.047 8.032c.429.444.429 1.159 0 1.587a1.112 1.112 0 0 1-1.587 0L.333 16.531a1.093 1.093 0 0 1 0-1.571z"/></symbol><symbol id="icon-more" viewBox="0 0 21 5"><path id="icon_-_more" data-name="icon - more" class="cls-1" d="M2001.5 1852a2.5 2.5 0 1 1-2.5 2.5 2.5 2.5 0 0 1 2.5-2.5zm8 0a2.5 2.5 0 1 1-2.5 2.5 2.5 2.5 0 0 1 2.5-2.5zm8 0a2.5 2.5 0 1 1-2.5 2.5 2.5 2.5 0 0 1 2.5-2.5z" transform="translate(-1999 -1852)"/></symbol><symbol id="icon-plus-circle" viewBox="0 0 28 28"><path id="icon" class="cls-1" d="M370 2107a14 14 0 1 1 14-14 14 14 0 0 1-14 14zm0-25.38a11.375 11.375 0 1 0 11.373 11.38A11.38 11.38 0 0 0 370 2081.62zm5.687 12.69h-4.374v4.37a1.313 1.313 0 1 1-2.625 0v-4.37h-4.378a1.31 1.31 0 1 1 0-2.62h4.376v-4.38a1.313 1.313 0 0 1 2.625 0v4.38h4.374a1.31 1.31 0 1 1 0 2.62z" transform="translate(-356 -2079)"/></symbol><symbol id="icon-reviews" viewBox="0 0 18 18"><path d="M9.48 15.444a11.816 11.816 0 0 1-1.88-.308 6.708 6.708 0 0 1-6.35 2.809c2.74-1.458 2.69-3.872 2.2-4.194A7.21 7.21 0 0 1 0 7.743C0 3.465 4.19-.004 9.48-.004S18 3.465 18 7.743s-3.23 7.701-8.52 7.701zM4.79 6a1.9 1.9 0 1 0 1.69 1.892A1.8 1.8 0 0 0 4.79 6zm4.22 0a1.906 1.906 0 1 0 1.68 1.892A1.795 1.795 0 0 0 9.01 6zm4.21 0a1.9 1.9 0 1 0 1.69 1.892A1.793 1.793 0 0 0 13.22 6z"/></symbol><symbol id="icon-right-arrow" viewBox="0 0 31.49 31.49"><path d="M21.205 5.007a1.112 1.112 0 0 0-1.587 0 1.12 1.12 0 0 0 0 1.571l8.047 8.047H1.111A1.106 1.106 0 0 0 0 15.737c0 .619.492 1.127 1.111 1.127h26.554l-8.047 8.032c-.429.444-.429 1.159 0 1.587a1.112 1.112 0 0 0 1.587 0l9.952-9.952a1.093 1.093 0 0 0 0-1.571l-9.952-9.953z"/></symbol><symbol id="icon-share" viewBox="0 0 18 18"><path d="M17.77 17.7l-5.5-7.23 5.48-5.858a1 1 0 0 1 .25.662v11.793a.985.985 0 0 1-.23.633zM.28 4.586a.785.785 0 0 1 .56-.242h4.94a1.616 1.616 0 0 0 1.25.62 1.469 1.469 0 0 0 .28-.034v2.517a1.7 1.7 0 1 0 3.38 0V4.93a1.469 1.469 0 0 0 .28.034 1.616 1.616 0 0 0 1.25-.62h4.94a.8.8 0 0 1 .56.242L9 12.1zm10.69-.553a.794.794 0 0 1-.6-.273l-.53-.582v4.269a.844.844 0 1 1-1.68 0V3.178l-.53.582a.827.827 0 0 1-.6.273.885.885 0 0 1-.84-.931.985.985 0 0 1 .24-.658L8.4.271A.812.812 0 0 1 9 0a.829.829 0 0 1 .6.272l1.96 2.173a.945.945 0 0 1 .25.658.892.892 0 0 1-.84.929zM.23 17.7a.985.985 0 0 1-.23-.633V5.273a1 1 0 0 1 .25-.662l5.48 5.858zM9 13.964l2.29-2.446 6.44 6.225a.786.786 0 0 1-.57.256H.84a.825.825 0 0 1-.58-.256l6.45-6.225z"/></symbol><symbol id="icon-stats" viewBox="0 0 18 18"><path id="icon" class="cls-1" d="M487.154 2003h-16.312a.847.847 0 0 1-.844-.85v-16.31a.845.845 0 0 1 .844-.84h16.312a.845.845 0 0 1 .845.84v16.31a.848.848 0 0 1-.845.85zm-.843-16.31h-14.625v14.62h14.625v-14.62zm-12.937 10.4h1.687a.846.846 0 0 1 .843.85v1.68a.846.846 0 0 1-.843.85h-1.687a.847.847 0 0 1-.845-.85v-1.68a.847.847 0 0 1 .845-.85zm4.781-7.59h1.687a.845.845 0 0 1 .844.84v9.28a.847.847 0 0 1-.844.85h-1.687a.848.848 0 0 1-.845-.85v-9.28a.845.845 0 0 1 .845-.84zm4.78 3.37h1.688a.847.847 0 0 1 .844.85v5.9a.847.847 0 0 1-.844.85h-1.688a.847.847 0 0 1-.843-.85v-5.9a.847.847 0 0 1 .843-.85z" transform="translate(-470 -1985)"/></symbol><symbol id="icon-user" viewBox="0 0 18 18"><path d="M18 17.125a.858.858 0 0 1-.84.871H.84a.858.858 0 0 1-.84-.871s0-3.173 2.25-4.328c1.42-.731.87-.137 2.61-.885a19.432 19.432 0 0 0 2.16-1.006l.02-1.72a3.294 3.294 0 0 1-.86-2.134c-.41.122-.54-.5-.57-.889s-.23-1.567.27-1.459a10.654 10.654 0 0 1-.14-1.886A3.335 3.335 0 0 1 9.01-.001a3.065 3.065 0 0 1 3.26 2.818 10.633 10.633 0 0 1-.14 1.885c.5-.106.28 1.08.25 1.459s-.16 1.008-.56.887a3.273 3.273 0 0 1-.86 2.13l.01 1.711s.42.243 2.16.99 1.2.188 2.62.918C18 13.952 18 17.125 18 17.125z"/></symbol><symbol id="logo-fb" viewBox="0 0 96.124 96.123"><path d="M72.089.02L59.624 0C45.62 0 36.57 9.285 36.57 23.656v10.907H24.037a1.96 1.96 0 0 0-1.96 1.961v15.803a1.96 1.96 0 0 0 1.96 1.96H36.57v39.876a1.96 1.96 0 0 0 1.96 1.96h16.352a1.96 1.96 0 0 0 1.96-1.96V54.287h14.654a1.96 1.96 0 0 0 1.96-1.96l.006-15.803a1.963 1.963 0 0 0-1.961-1.961H56.842v-9.246c0-4.444 1.059-6.7 6.848-6.7l8.397-.003a1.96 1.96 0 0 0 1.959-1.96V1.98A1.96 1.96 0 0 0 72.089.02z"/></symbol><symbol id="logo-vk" viewBox="0 0 548.358 548.358"><path d="M545.451 400.298c-.664-1.431-1.283-2.618-1.858-3.569-9.514-17.135-27.695-38.167-54.532-63.102l-.567-.571-.284-.28-.287-.287h-.288c-12.18-11.611-19.893-19.418-23.123-23.415-5.91-7.614-7.234-15.321-4.004-23.13 2.282-5.9 10.854-18.36 25.696-37.397 7.807-10.089 13.99-18.175 18.556-24.267 32.931-43.78 47.208-71.756 42.828-83.939l-1.701-2.847c-1.143-1.714-4.093-3.282-8.846-4.712-4.764-1.427-10.853-1.663-18.278-.712l-82.224.568c-1.332-.472-3.234-.428-5.712.144l-3.713.859-1.431.715-1.136.859c-.952.568-1.999 1.567-3.142 2.995-1.137 1.423-2.088 3.093-2.848 4.996-8.952 23.031-19.13 44.444-30.553 64.238-7.043 11.803-13.511 22.032-19.418 30.693-5.899 8.658-10.848 15.037-14.842 19.126-4 4.093-7.61 7.372-10.852 9.849-3.237 2.478-5.708 3.525-7.419 3.142-1.715-.383-3.33-.763-4.859-1.143-2.663-1.714-4.805-4.045-6.42-6.995-1.622-2.95-2.714-6.663-3.285-11.136-.568-4.476-.904-8.326-1-11.563-.089-3.233-.048-7.806.145-13.706.198-5.903.287-9.897.287-11.991 0-7.234.141-15.085.424-23.555.288-8.47.521-15.181.716-20.125.194-4.949.284-10.185.284-15.705s-.336-9.849-1-12.991a44.442 44.442 0 0 0-2.99-9.137c-1.335-2.95-3.289-5.232-5.853-6.852-2.569-1.618-5.763-2.902-9.564-3.856-10.089-2.283-22.936-3.518-38.547-3.71-35.401-.38-58.148 1.906-68.236 6.855-3.997 2.091-7.614 4.948-10.848 8.562-3.427 4.189-3.905 6.475-1.431 6.851 11.422 1.711 19.508 5.804 24.267 12.275l1.715 3.429c1.334 2.474 2.666 6.854 3.999 13.134 1.331 6.28 2.19 13.227 2.568 20.837.95 13.897.95 25.793 0 35.689-.953 9.9-1.853 17.607-2.712 23.127-.859 5.52-2.143 9.993-3.855 13.418-1.715 3.426-2.856 5.52-3.428 6.28-.571.76-1.047 1.239-1.425 1.427a21.387 21.387 0 0 1-7.71 1.431c-2.667 0-5.901-1.334-9.707-4-3.805-2.666-7.754-6.328-11.847-10.992-4.093-4.665-8.709-11.184-13.85-19.558-5.137-8.374-10.467-18.271-15.987-29.691l-4.567-8.282c-2.855-5.328-6.755-13.086-11.704-23.267-4.952-10.185-9.329-20.037-13.134-29.554-1.521-3.997-3.806-7.04-6.851-9.134l-1.429-.859c-.95-.76-2.475-1.567-4.567-2.427a30.301 30.301 0 0 0-6.567-1.854l-78.229.568c-7.994 0-13.418 1.811-16.274 5.428l-1.143 1.711c-.571.953-.859 2.475-.859 4.57 0 2.094.571 4.664 1.714 7.707 11.42 26.84 23.839 52.725 37.257 77.659 13.418 24.934 25.078 45.019 34.973 60.237 9.897 15.229 19.985 29.602 30.264 43.112 10.279 13.515 17.083 22.176 20.412 25.981 3.333 3.812 5.951 6.662 7.854 8.565l7.139 6.851c4.568 4.569 11.276 10.041 20.127 16.416 8.853 6.379 18.654 12.659 29.408 18.85 10.756 6.181 23.269 11.225 37.546 15.126 14.275 3.905 28.169 5.472 41.684 4.716h32.834c6.659-.575 11.704-2.669 15.133-6.283l1.136-1.431c.764-1.136 1.479-2.901 2.139-5.276.668-2.379 1-5 1-7.851-.195-8.183.428-15.558 1.852-22.124 1.423-6.564 3.045-11.513 4.859-14.846 1.813-3.33 3.859-6.14 6.136-8.418 2.282-2.283 3.908-3.666 4.862-4.142.948-.479 1.705-.804 2.276-.999 4.568-1.522 9.944-.048 16.136 4.429 6.187 4.473 11.99 9.996 17.418 16.56 5.425 6.57 11.943 13.941 19.555 22.124 7.617 8.186 14.277 14.271 19.985 18.274l5.708 3.426c3.812 2.286 8.761 4.38 14.853 6.283 6.081 1.902 11.409 2.378 15.984 1.427l73.087-1.14c7.229 0 12.854-1.197 16.844-3.572 3.998-2.379 6.373-5 7.139-7.851.764-2.854.805-6.092.145-9.712-.677-3.611-1.344-6.136-2.008-7.563z"/></symbol><symbol id="user" viewBox="0 0 20 20"><path d="M10 1.246c2.13 0 4.38 1.789 4.38 3.125V7.5c0 1.2-.5 3.506-1.84 4.562a1.25 1.25 0 0 0 .25 2.12l5.44 2.582a.7.7 0 0 1 .52.769v1.221H1.25v-1.269a.764.764 0 0 1 .52-.723l5.5-2.592a1.261 1.261 0 0 0 .26-2.112 6.648 6.648 0 0 1-1.91-4.559V4.372c0-1.307 2.28-3.125 4.38-3.125m0-1.251c-2.76 0-5.63 2.305-5.63 4.376V7.5c0 1.366.62 4.13 2.37 5.534l-5.49 2.593S0 16.184 0 16.878v1.877a1.25 1.25 0 0 0 1.25 1.25h17.5a1.25 1.25 0 0 0 1.25-1.25v-1.877c0-.736-1.25-1.251-1.25-1.251l-5.44-2.582c1.73-1.364 2.32-4.044 2.32-5.545V4.373c0-2.071-2.87-4.376-5.63-4.376z"/></symbol></svg>